# xmcd
#
# Track frame offsets: 
#        150
#        66663
#        76243
#        91913
#        133183
#        156035
#        166218
#        190055
#
# Disc length: 2618 seconds
#
# Revision: 3
# Processed by: cddbd v1.5.2PL0 Copyright (c) Steve Scherf et al.
# Submitted via: ExactAudioCopy v0.95b4
#
DISCID=630a3808
DTITLE=Magellan - Hour Of Restoration
DYEAR=1991
DGENRE=Progressive Rock
TTITLE0=Magna Carta
TTITLE1=The Winner
TTITLE2=Friends Of America
TTITLE3=Union Jack
TTITLE4=Another Burning
TTITLE5=Just One Bridge
TTITLE6=Breaking These Circles
TTITLE7=Turning Point
EXTD=YEAR: 1993
EXTT0=
EXTT1=
EXTT2=
EXTT3=
EXTT4=
EXTT5=
EXTT6=
EXTT7=
PLAYORDER=
